<svg xmlns="http://www.w3.org/2000/svg" width="475.655" height="474.989" viewBox="0 0 475.655 474.989"><g transform="translate(-7494.2 -1300.887)" opacity="0.06"><path d="M7505.9,1343.3l4.6,4.7-4.6,4.7-4.7-4.7,4.7-4.7m0-7.1-11.7,11.7,11.7,11.7,11.7-11.7-11.7-11.7Z" fill="#e9b701"/><path d="M7610.1,1308.5l4.6,4.7-4.6,4.7-4.6-4.7,4.6-4.7m0-7.1-11.7,11.7,11.7,11.7,11.7-11.7Z" fill="#e9b701"/><path d="M7504.8,1424.7a2.716,2.716,0,0,1-1.7-.6l-5.5-4.9a2.479,2.479,0,1,1,3.3-3.7l3.6,3.2,6.6-7.7a2.484,2.484,0,1,1,3.8,3.2l-8.3,9.7a2.842,2.842,0,0,1-1.7.9A.1.1,0,0,0,7504.8,1424.7Z" fill="#e9b701"/><path d="M7535.9,1389.8a2.566,2.566,0,0,1-1.8-.7,2.416,2.416,0,0,1,0-3.5l9.7-9.7a2.475,2.475,0,0,1,3.5,3.5l-9.7,9.7A2.413,2.413,0,0,1,7535.9,1389.8Z" fill="#e9b701"/><path d="M7575.4,1339.5l2.7,5.4,6,.9-4.3,4.2,1,6-5.4-2.8-5.4,2.8,1-6-4.3-4.2,6-.9Z" fill="#e9b701"/><rect width="16.6" height="16.6" transform="translate(7494.38 1486.324) rotate(-45)" fill="#e9b701"/><circle cx="9.8" cy="9.8" r="9.8" transform="translate(7531 1441.9)" fill="#e9b701"/><path d="M7570.2,1426.8a2.609,2.609,0,0,1-2.1-1.1l-1.2-1.9c-1.3-2-.8-3.3-.3-4.1,1.3-1.8,3.6-1.2,5.8-.6.3.1.6.2,1,.3l-.3-.6c-.8-1.4-2.8-4.6-1-6.9,1.3-1.7,3.4-1.6,5.6-1.1a2.576,2.576,0,0,1,1-1.9,2.527,2.527,0,0,1,3.5.5l1.3,1.8c.5.6,2,2.5.7,4.4s-3.5,1.3-5.8.6a13.058,13.058,0,0,0-1.3-.3,2.169,2.169,0,0,1,.3.5c1.4,2.3,2.6,5,1.1,7.1-1.3,1.8-3.6,1.6-5.7,1.1a2.608,2.608,0,0,1-1.1,2.1C7571.2,1426.7,7570.7,1426.8,7570.2,1426.8Zm9.5-12.3Z" fill="#e9b701"/><path d="M7608.7,1390.1a2.716,2.716,0,0,1-1.7-.6l-5.5-4.9a2.479,2.479,0,1,1,3.3-3.7l3.6,3.2,6.6-7.7a2.43,2.43,0,0,1,3.5-.3,2.519,2.519,0,0,1,.3,3.5l-8.3,9.7a2.842,2.842,0,0,1-1.7.9A.1.1,0,0,0,7608.7,1390.1Z" fill="#e9b701"/><path d="M7639.8,1355.1a2.566,2.566,0,0,1-1.8-.7,2.416,2.416,0,0,1,0-3.5l9.7-9.7a2.475,2.475,0,0,1,3.5,3.5l-9.7,9.7A2.06,2.06,0,0,1,7639.8,1355.1Z" fill="#e9b701"/><path d="M7679.3,1304.9l2.7,5.4,6,.9-4.3,4.2,1,6-5.4-2.8-5.4,2.8,1-6-4.3-4.2,6-.9Z" fill="#e9b701"/><rect width="16.6" height="16.6" transform="translate(7529.473 1312.625) rotate(-45)" fill="#e9b701"/><path d="M7923.2,1688.9l4.6,4.7-4.6,4.7-4.6-4.7,4.6-4.7m0-7.1-11.7,11.7,11.7,11.7,11.7-11.7-11.7-11.7Z" fill="#e9b701"/><path d="M7849.1,1770.2a2.566,2.566,0,0,1-1.8-.7,2.416,2.416,0,0,1,0-3.5l9.7-9.7a2.475,2.475,0,0,1,3.5,3.5l-9.7,9.7A2.414,2.414,0,0,1,7849.1,1770.2Z" fill="#e9b701"/><path d="M7888.6,1719.9l2.7,5.4,6,.9-4.3,4.2,1,6-5.4-2.8-5.4,2.8,1-6-4.3-4.2,6-.9Z" fill="#e9b701"/><path d="M7921.8,1770.5a2.716,2.716,0,0,1-1.7-.6l-5.5-4.9a2.479,2.479,0,1,1,3.3-3.7l3.6,3.2,6.6-7.7a2.484,2.484,0,1,1,3.8,3.2l-8.3,9.7a2.842,2.842,0,0,1-1.7.9C7921.9,1770.5,7921.9,1770.5,7921.8,1770.5Z" fill="#e9b701"/><path d="M7953,1735.5a2.566,2.566,0,0,1-1.8-.7,2.416,2.416,0,0,1,0-3.5l9.7-9.7a2.416,2.416,0,0,1,3.5,0,2.5,2.5,0,0,1,0,3.5l-9.7,9.7A2.194,2.194,0,0,1,7953,1735.5Z" fill="#e9b701"/><path d="M7930.1,1704.1" fill="none"/><path d="M7859.7,1621.2" fill="none"/><path d="M7714.9,1758.7l4.7,4.7-4.7,4.7-4.6-4.7,4.6-4.7m0-7-11.7,11.7,11.7,11.7,11.7-11.7-11.7-11.7Z" fill="#e9b701"/><path d="M7818.8,1724.1l4.6,4.7-4.6,4.7-4.7-4.7,4.7-4.7m0-7-11.7,11.7,11.7,11.7,11.7-11.7Z" fill="#e9b701"/><path d="M7784.1,1755.2l2.7,5.4,6,.9-4.3,4.2,1,6-5.4-2.8-5.4,2.8,1-6-4.3-4.2,6-.9Z" fill="#e9b701"/><path d="M7748.8,1586.2l4.6,4.6-4.6,4.7-4.6-4.7,4.6-4.6m0-7-11.7,11.7,11.7,11.7,11.7-11.7Z" fill="#e9b701"/><circle cx="9.8" cy="9.8" r="9.8" transform="translate(7565.8 1754.2)" fill="#e9b701"/><path d="M7607.2,1729.9" fill="#e9b701"/><path d="M7605.1,1739.2a2.467,2.467,0,0,1-2.1-1.2l-1.2-1.8c-1.3-2-.8-3.3-.3-4.1,1.3-1.8,3.6-1.2,5.8-.6.3.1.6.2,1,.3l-.3-.6c-.8-1.4-2.8-4.6-1-6.9,1.3-1.7,3.4-1.6,5.5-1.1a2.417,2.417,0,0,1,1-1.9,2.527,2.527,0,0,1,3.5.5l1.3,1.8c.5.6,2,2.5.7,4.4s-3.5,1.3-5.8.6a13.058,13.058,0,0,0-1.3-.3,2.169,2.169,0,0,1,.3.5c.8,1.4,2.8,4.7,1.1,7-1.3,1.8-3.6,1.6-5.7,1.1a2.466,2.466,0,0,1-1.2,2.1C7606,1739,7605.5,1739.2,7605.1,1739.2Zm9.5-12.3Z" fill="#e9b701"/><path d="M7630.9,1692.4" fill="none"/><path d="M7547.7,1670.9" fill="none"/><path d="M7643.5,1702.4a2.716,2.716,0,0,1-1.7-.6l-5.4-4.8a2.479,2.479,0,1,1,3.3-3.7l3.5,3.2,6.6-7.7a2.484,2.484,0,1,1,3.8,3.2l-8.3,9.7a2.842,2.842,0,0,1-1.7.9C7643.6,1702.4,7643.6,1702.4,7643.5,1702.4Z" fill="#e9b701"/><path d="M7597.7,1669.7" fill="none"/><path d="M7608.3,1682.3" fill="none"/><path d="M7674.7,1667.5a2.566,2.566,0,0,1-1.8-.7,2.416,2.416,0,0,1,0-3.5l9.7-9.7a2.475,2.475,0,0,1,3.5,3.5l-9.7,9.7A2.195,2.195,0,0,1,7674.7,1667.5Z" fill="#e9b701"/><path d="M7714.2,1617.3l2.7,5.4,6,.9-4.3,4.2,1,6-5.3-2.8-5.4,2.8,1-6-4.3-4.2,6-.9Z" fill="#e9b701"/><rect width="16.6" height="16.6" transform="translate(7633.14 1764.138) rotate(-45)" fill="#e9b701"/><path d="M7852.7,1551.6l4.7,4.6-4.7,4.7-4.7-4.7,4.7-4.6m0-7.1-11.7,11.7,11.7,11.7,11.7-11.7Z" fill="#e9b701"/><circle cx="9.8" cy="9.8" r="9.8" transform="translate(7669.7 1719.6)" fill="#e9b701"/><path d="M7709,1704.5a2.467,2.467,0,0,1-2.1-1.2l-1.2-1.9c-1.3-2-.8-3.3-.3-4.1,1.3-1.8,3.5-1.2,5.8-.6.3.1.6.2,1,.3l-.3-.6c-.8-1.4-2.8-4.6-1-6.9,1.3-1.7,3.4-1.6,5.5-1.1a2.576,2.576,0,0,1,1-1.9,2.527,2.527,0,0,1,3.5.5l1.3,1.8c.5.6,1.9,2.5.7,4.4-1.3,1.9-3.5,1.3-5.8.6-.3-.1-.8-.2-1.3-.4a2.169,2.169,0,0,1,.3.5c.8,1.4,2.8,4.7,1.1,7.1-1.3,1.8-3.6,1.6-5.7,1.1a2.466,2.466,0,0,1-1.2,2.1A3.079,3.079,0,0,1,7709,1704.5Zm9.5-12.3Z" fill="#e9b701"/><path d="M7747.4,1667.8a2.716,2.716,0,0,1-1.7-.6l-5.5-4.9a2.479,2.479,0,1,1,3.3-3.7l3.6,3.2,6.6-7.7a2.484,2.484,0,1,1,3.8,3.2l-8.3,9.7a2.842,2.842,0,0,1-1.7.9C7747.5,1667.8,7747.5,1667.8,7747.4,1667.8Z" fill="#e9b701"/><path d="M7778.6,1632.9a2.566,2.566,0,0,1-1.8-.7,2.416,2.416,0,0,1,0-3.5l9.7-9.7a2.416,2.416,0,0,1,3.5,0,2.5,2.5,0,0,1,0,3.5l-9.7,9.7A2.611,2.611,0,0,1,7778.6,1632.9Z" fill="#e9b701"/><path d="M7818.1,1582.6l2.7,5.4,6,.9-4.3,4.2,1,6-5.3-2.8-5.4,2.8,1-6-4.3-4.2,6-.9Z" fill="#e9b701"/><rect width="16.6" height="16.6" transform="translate(7737.24 1729.35) rotate(-45)" fill="#e9b701"/><path d="M7956.8,1516.8l4.7,4.7-4.7,4.6-4.6-4.6,4.6-4.7m0-7.1-11.7,11.7,11.7,11.7,11.7-11.7-11.7-11.7Z" fill="#e9b701"/><circle cx="9.8" cy="9.8" r="9.8" transform="translate(7773.8 1684.8)" fill="#e9b701"/><path d="M7815.2,1660.4" fill="#e9b701"/><path d="M7813.1,1669.8a2.467,2.467,0,0,1-2.1-1.2l-1.2-1.9c-1.3-2-.8-3.3-.3-4.1,1.3-1.8,3.6-1.2,5.8-.6.3.1.6.2,1,.3l-.3-.6c-.8-1.4-2.8-4.6-1-6.9,1.3-1.7,3.4-1.6,5.5-1.1a2.576,2.576,0,0,1,1-1.9,2.527,2.527,0,0,1,3.5.5l1.3,1.8c.5.6,2,2.5.7,4.4s-3.5,1.3-5.8.6a13.058,13.058,0,0,0-1.3-.3,2.169,2.169,0,0,1,.3.5c.8,1.4,2.8,4.7,1.1,7-1.3,1.8-3.6,1.6-5.7,1.1a2.466,2.466,0,0,1-1.2,2.1A6.114,6.114,0,0,1,7813.1,1669.8Zm9.5-12.4Z" fill="#e9b701"/><path d="M7838.9,1623" fill="none"/><path d="M7755.7,1601.4" fill="none"/><path d="M7685.2,1518.5" fill="none"/><path d="M7851.5,1633a2.716,2.716,0,0,1-1.7-.6l-5.5-4.9a2.479,2.479,0,1,1,3.3-3.7l3.6,3.2,6.6-7.7a2.484,2.484,0,1,1,3.8,3.2l-8.3,9.7a2.842,2.842,0,0,1-1.7.9C7851.6,1633,7851.6,1633,7851.5,1633Z" fill="#e9b701"/><path d="M7805.8,1600.2" fill="none"/><path d="M7816.3,1612.8" fill="none"/><path d="M7882.7,1598.1a2.566,2.566,0,0,1-1.8-.7,2.416,2.416,0,0,1,0-3.5l9.7-9.7a2.475,2.475,0,0,1,3.5,3.5l-9.7,9.7A2.611,2.611,0,0,1,7882.7,1598.1Z" fill="#e9b701"/><path d="M7922.2,1547.9l2.7,5.4,6,.9-4.3,4.2,1,6-5.4-2.8-5.4,2.8,1-6-4.3-4.2,6-.9Z" fill="#e9b701"/><rect width="16.6" height="16.6" transform="translate(7841.098 1694.665) rotate(-45)" fill="#e9b701"/><circle cx="9.8" cy="9.8" r="9.8" transform="translate(7877.7 1650.2)" fill="#e9b701"/><path d="M7917,1635.1a2.609,2.609,0,0,1-2.1-1.1l-1.2-1.8c-1.3-2-.8-3.3-.3-4.1,1.3-1.8,3.6-1.2,5.8-.6.3.1.6.2,1,.3l-.3-.6c-.8-1.4-2.8-4.6-1-6.9,1.3-1.7,3.4-1.6,5.6-1.1a2.576,2.576,0,0,1,1-1.9,2.527,2.527,0,0,1,3.5.5l1.3,1.8c.5.6,2,2.5.7,4.4s-3.5,1.3-5.8.6a13.058,13.058,0,0,0-1.3-.3,2.169,2.169,0,0,1,.3.5c1.4,2.3,2.6,5,1.1,7-1.3,1.8-3.6,1.6-5.7,1.1a2.608,2.608,0,0,1-1.1,2.1C7917.9,1635,7917.4,1635.1,7917,1635.1Zm9.5-12.3Z" fill="#e9b701"/><path d="M7955.4,1598.4a2.716,2.716,0,0,1-1.7-.6l-5.5-4.8a2.479,2.479,0,1,1,3.3-3.7l3.6,3.2,6.6-7.7a2.484,2.484,0,1,1,3.8,3.2l-8.3,9.7a2.842,2.842,0,0,1-1.7.9C7955.5,1598.4,7955.5,1598.4,7955.4,1598.4Z" fill="#e9b701"/><path d="M7541.8,1654.9l4.6,4.7-4.6,4.7-4.7-4.7,4.7-4.7m0-7-11.7,11.7,11.7,11.7,11.7-11.7Z" fill="#e9b701"/><path d="M7507.1,1686l2.7,5.4,6,.9-4.3,4.2,1,6-5.3-2.8-5.4,2.8,1-6-4.3-4.2,6-.9Z" fill="#e9b701"/><path d="M7645.7,1620.3l4.6,4.7-4.6,4.7-4.6-4.7,4.6-4.7m0-7.1-11.7,11.7,11.7,11.8,11.7-11.7-11.7-11.8Z" fill="#e9b701"/><path d="M7501.9,1773.2a2.609,2.609,0,0,1-2.1-1.1l-1.2-1.8c-1.3-2-.8-3.3-.3-4.1,1.3-1.8,3.6-1.2,5.8-.6.3.1.6.2,1,.3l-.3-.6c-.8-1.4-2.8-4.6-1-6.9,1.3-1.7,3.4-1.6,5.5-1.1a2.417,2.417,0,0,1,1-1.9,2.527,2.527,0,0,1,3.5.5l1.3,1.8c.5.6,1.9,2.5.7,4.4-1.3,1.9-3.5,1.3-5.8.6a13.058,13.058,0,0,0-1.3-.3,2.169,2.169,0,0,1,.3.5c.8,1.4,2.8,4.7,1.1,7-1.3,1.8-3.6,1.6-5.7,1.1a2.608,2.608,0,0,1-1.1,2.1C7502.9,1773.1,7502.4,1773.2,7501.9,1773.2Zm9.5-12.3Z" fill="#e9b701"/><path d="M7540.4,1736.5a2.716,2.716,0,0,1-1.7-.6l-5.5-4.9a2.479,2.479,0,1,1,3.3-3.7l3.6,3.2,6.6-7.7a2.484,2.484,0,1,1,3.8,3.2l-8.3,9.7a2.842,2.842,0,0,1-1.7.9A.1.1,0,0,0,7540.4,1736.5Z" fill="#e9b701"/><path d="M7571.5,1701.6a2.566,2.566,0,0,1-1.8-.7,2.416,2.416,0,0,1,0-3.5l9.7-9.7a2.475,2.475,0,0,1,3.5,3.5l-9.7,9.7A2.413,2.413,0,0,1,7571.5,1701.6Z" fill="#e9b701"/><path d="M7611,1651.4l2.7,5.4,6,.9-4.3,4.2,1,6-5.4-2.8-5.4,2.8,1-6-4.3-4.2,6-.9Z" fill="#e9b701"/><path d="M7575.7,1482.4l4.6,4.7-4.6,4.7-4.6-4.7,4.6-4.7m0-7.1L7564,1487l11.7,11.7,11.7-11.7Z" fill="#e9b701"/><path d="M7501.6,1563.7a2.566,2.566,0,0,1-1.8-.7,2.416,2.416,0,0,1,0-3.5l9.7-9.7a2.475,2.475,0,0,1,3.5,3.5l-9.7,9.7A2.61,2.61,0,0,1,7501.6,1563.7Z" fill="#e9b701"/><path d="M7541.1,1513.4l2.7,5.4,6,.9-4.3,4.2,1,6-5.3-2.8-5.4,2.8,1-6-4.3-4.2,6-.9Z" fill="#e9b701"/><path d="M7679.6,1447.7l4.7,4.6-4.7,4.7-4.6-4.7,4.6-4.6m0-7-11.7,11.7,11.7,11.7,11.7-11.7-11.7-11.7Z" fill="#e9b701"/><circle cx="9.8" cy="9.8" r="9.8" transform="translate(7496.6 1615.8)" fill="#e9b701"/><path d="M7535.9,1600.7a2.609,2.609,0,0,1-2.1-1.1l-1.2-1.8c-1.3-2-.8-3.3-.3-4.1,1.3-1.8,3.6-1.2,5.8-.6.3.1.6.2,1,.3l-.3-.6c-.8-1.4-2.8-4.6-1-6.9,1.3-1.7,3.4-1.6,5.6-1.1a2.576,2.576,0,0,1,1-1.9,2.527,2.527,0,0,1,3.5.5l1.3,1.8c.5.6,2,2.5.7,4.4s-3.5,1.3-5.8.6a13.058,13.058,0,0,0-1.3-.3,2.169,2.169,0,0,1,.3.5c1.4,2.3,2.6,5,1.1,7.1-1.3,1.8-3.6,1.6-5.7,1.1a2.608,2.608,0,0,1-1.1,2.1A7.446,7.446,0,0,0,7535.9,1600.7Zm9.5-12.3Z" fill="#e9b701"/><path d="M7574.3,1564a2.716,2.716,0,0,1-1.7-.6l-5.5-4.9a2.479,2.479,0,1,1,3.3-3.7l3.6,3.2,6.6-7.7a2.484,2.484,0,1,1,3.8,3.2l-8.2,9.7a2.842,2.842,0,0,1-1.7.9C7574.4,1564,7574.4,1564,7574.3,1564Z" fill="#e9b701"/><path d="M7605.5,1529a2.566,2.566,0,0,1-1.8-.7,2.416,2.416,0,0,1,0-3.5l9.7-9.7a2.475,2.475,0,0,1,3.5,3.5l-9.7,9.7A2.194,2.194,0,0,1,7605.5,1529Z" fill="#e9b701"/><path d="M7645,1478.8l2.7,5.4,6,.9-4.3,4.2,1,6-5.4-2.8-5.4,2.8,1-6-4.3-4.2,6-.9Z" fill="#e9b701"/><rect width="16.6" height="16.6" transform="translate(7564.092 1625.471) rotate(-45)" fill="#e9b701"/><path d="M7783.7,1413l4.6,4.6-4.6,4.7-4.6-4.7,4.6-4.6m0-7.1-11.7,11.7,11.7,11.7,11.7-11.7Z" fill="#e9b701"/><circle cx="9.8" cy="9.8" r="9.8" transform="translate(7600.8 1581)" fill="#e9b701"/><path d="M7642.2,1556.6" fill="#e9b701"/><path d="M7640,1565.9a2.467,2.467,0,0,1-2.1-1.2l-1.2-1.8c-1.3-2-.8-3.3-.3-4.1,1.3-1.8,3.6-1.2,5.8-.6.3.1.6.2,1,.3l-.3-.6c-.8-1.4-2.8-4.6-1-6.9,1.3-1.7,3.4-1.6,5.5-1.1a2.576,2.576,0,0,1,1-1.9,2.527,2.527,0,0,1,3.5.5l1.3,1.8c.5.6,2,2.5.7,4.4s-3.5,1.3-5.8.6a13.058,13.058,0,0,0-1.3-.3,2.169,2.169,0,0,1,.3.5c.8,1.4,2.8,4.7,1.1,7-1.3,1.8-3.6,1.6-5.7,1.1a2.466,2.466,0,0,1-1.2,2.1A5.852,5.852,0,0,1,7640,1565.9Zm9.5-12.3Z" fill="#e9b701"/><path d="M7665.9,1519.2" fill="none"/><path d="M7582.6,1497.6" fill="none"/><path d="M7512.1,1414.7" fill="none"/><path d="M7678.4,1529.2a2.716,2.716,0,0,1-1.7-.6l-5.5-4.9a2.479,2.479,0,1,1,3.3-3.7l3.5,3.2,6.6-7.7a2.43,2.43,0,0,1,3.5-.3,2.519,2.519,0,0,1,.3,3.5l-8.3,9.7a2.842,2.842,0,0,1-1.7.9C7678.5,1529.2,7678.5,1529.2,7678.4,1529.2Z" fill="#e9b701"/><path d="M7632.7,1496.4" fill="none"/><path d="M7643.2,1509" fill="none"/><path d="M7709.6,1494.3a2.566,2.566,0,0,1-1.8-.7,2.416,2.416,0,0,1,0-3.5l9.7-9.7a2.475,2.475,0,0,1,3.5,3.5l-9.7,9.7A2.611,2.611,0,0,1,7709.6,1494.3Z" fill="#e9b701"/><path d="M7749.1,1444l2.7,5.4,6,.9-4.3,4.2,1,6-5.3-2.8-5.4,2.8,1-6-4.3-4.2,6-.9Z" fill="#e9b701"/><rect width="16.6" height="16.6" transform="translate(7668.01 1590.866) rotate(-45)" fill="#e9b701"/><path d="M7887.6,1378.3l4.6,4.6-4.6,4.7-4.6-4.7,4.6-4.6m0-7-11.7,11.7,11.7,11.7,11.7-11.7-11.7-11.7Z" fill="#e9b701"/><circle cx="9.8" cy="9.8" r="9.8" transform="translate(7704.7 1546.4)" fill="#e9b701"/><path d="M7743.9,1531.3a2.609,2.609,0,0,1-2.1-1.1l-1.2-1.9c-1.3-2-.8-3.3-.3-4.1,1.3-1.8,3.6-1.2,5.8-.6.3.1.6.2,1,.3l-.3-.6c-.8-1.4-2.8-4.6-1-6.9,1.3-1.7,3.4-1.6,5.5-1.1a2.417,2.417,0,0,1,1-1.9,2.527,2.527,0,0,1,3.5.5l1.3,1.8c.5.6,2,2.5.7,4.4s-3.5,1.3-5.8.6a13.058,13.058,0,0,0-1.3-.3,2.169,2.169,0,0,1,.3.5c.8,1.4,2.8,4.7,1.1,7-1.3,1.8-3.6,1.6-5.7,1.1a2.608,2.608,0,0,1-1.1,2.1A7.858,7.858,0,0,1,7743.9,1531.3Zm9.5-12.3Z" fill="#e9b701"/><path d="M7782.3,1494.6a2.716,2.716,0,0,1-1.7-.6l-5.5-4.9a2.479,2.479,0,1,1,3.3-3.7l3.6,3.2,6.6-7.7a2.484,2.484,0,1,1,3.8,3.2l-8.3,9.7a2.842,2.842,0,0,1-1.7.9C7782.4,1494.6,7782.4,1494.6,7782.3,1494.6Z" fill="#e9b701"/><path d="M7813.5,1459.6a2.566,2.566,0,0,1-1.8-.7,2.416,2.416,0,0,1,0-3.5l9.7-9.7a2.475,2.475,0,0,1,3.5,3.5l-9.7,9.7A2.194,2.194,0,0,1,7813.5,1459.6Z" fill="#e9b701"/><path d="M7853,1409.4l2.7,5.4,6,.9-4.3,4.2,1,6-5.4-2.8-5.4,2.8,1-6-4.3-4.2,6-.9Z" fill="#e9b701"/><rect width="16.6" height="16.6" transform="translate(7946.379 1658.029) rotate(-45)" fill="#e9b701"/><path d="M7964.8,1530.2" fill="none"/><rect width="16.6" height="16.6" transform="translate(7772.014 1555.387) rotate(-45)" fill="#e9b701"/><circle cx="9.8" cy="9.8" r="9.8" transform="translate(7808.6 1510.9)" fill="#e9b701"/><path d="M7850,1486.6" fill="#e9b701"/><path d="M7847.8,1495.9a2.609,2.609,0,0,1-2.1-1.1l-1.2-1.9c-1.3-2-.8-3.3-.3-4.1,1.3-1.8,3.6-1.2,5.8-.6.3.1.6.2,1,.3l-.3-.6c-.8-1.4-2.8-4.6-1-6.9,1.3-1.7,3.4-1.6,5.6-1.1a2.576,2.576,0,0,1,1-1.9,2.527,2.527,0,0,1,3.5.5l1.3,1.8c.5.6,1.9,2.5.7,4.4-1.3,1.9-3.5,1.3-5.8.6a13.058,13.058,0,0,0-1.3-.3,2.169,2.169,0,0,1,.3.5c1.4,2.3,2.6,5,1.1,7.1-1.3,1.8-3.6,1.6-5.7,1.1a2.608,2.608,0,0,1-1.1,2.1A7.078,7.078,0,0,0,7847.8,1495.9Zm9.5-12.4Z" fill="#e9b701"/><path d="M7873.7,1449.1" fill="none"/><path d="M7790.4,1427.6" fill="none"/><path d="M7886.2,1459.1a2.716,2.716,0,0,1-1.7-.6l-5.5-4.9a2.479,2.479,0,1,1,3.3-3.7l3.6,3.2,6.6-7.7a2.484,2.484,0,1,1,3.8,3.2l-8.3,9.7a2.842,2.842,0,0,1-1.7.9C7886.3,1459.1,7886.3,1459.1,7886.2,1459.1Z" fill="#e9b701"/><path d="M7840.5,1426.3" fill="none"/><path d="M7851,1438.9" fill="none"/><path d="M7917.4,1424.2a2.566,2.566,0,0,1-1.8-.7,2.416,2.416,0,0,1,0-3.5l9.7-9.7a2.475,2.475,0,0,1,3.5,3.5l-9.7,9.7A2.609,2.609,0,0,1,7917.4,1424.2Z" fill="#e9b701"/><path d="M7956.9,1374l2.7,5.4,6,.9-4.3,4.2,1,6-5.4-2.8-5.4,2.8,1-6-4.3-4.2,6-.9Z" fill="#e9b701"/><rect width="16.6" height="16.6" transform="translate(7875.791 1520.775) rotate(-45)" fill="#e9b701"/><circle cx="9.8" cy="9.8" r="9.8" transform="translate(7912.5 1476.3)" fill="#e9b701"/><path d="M7951.7,1461.2a2.467,2.467,0,0,1-2.1-1.2l-1.2-1.9c-1.3-2-.8-3.3-.3-4.1,1.3-1.8,3.6-1.2,5.8-.6.3.1.6.2,1,.3l-.3-.6c-.8-1.4-2.8-4.6-1-6.9,1.3-1.7,3.5-1.6,5.6-1.1a2.417,2.417,0,0,1,1-1.9,2.527,2.527,0,0,1,3.5.5l1.3,1.8c.5.6,1.9,2.5.7,4.4-1.3,1.9-3.5,1.3-5.8.6a9.277,9.277,0,0,1-1.3-.4,2.169,2.169,0,0,1,.3.5c1.4,2.3,2.6,5,1.1,7.1-1.3,1.8-3.6,1.6-5.7,1.1a2.466,2.466,0,0,1-1.2,2.1A3.53,3.53,0,0,1,7951.7,1461.2Zm9.5-12.3Z" fill="#e9b701"/><rect width="16.6" height="16.6" transform="translate(7598.866 1451.507) rotate(-45)" fill="#e9b701"/><circle cx="9.8" cy="9.8" r="9.8" transform="translate(7635.5 1407.1)" fill="#e9b701"/><path d="M7676.9,1382.7" fill="#e9b701"/><path d="M7674.7,1392a2.467,2.467,0,0,1-2.1-1.2l-1.2-1.9c-1.3-2-.8-3.3-.3-4.1,1.3-1.8,3.6-1.2,5.8-.6.3.1.6.2,1,.3l-.3-.6c-.8-1.4-2.8-4.6-1-6.9,1.3-1.7,3.4-1.6,5.5-1.1a2.576,2.576,0,0,1,1-1.9,2.527,2.527,0,0,1,3.5.5l1.3,1.8c.5.6,2,2.5.7,4.4s-3.5,1.3-5.8.6a13.058,13.058,0,0,0-1.3-.3,2.169,2.169,0,0,1,.3.5c.8,1.4,2.8,4.7,1.1,7-1.3,1.8-3.6,1.6-5.7,1.1a2.466,2.466,0,0,1-1.2,2.1A2.768,2.768,0,0,1,7674.7,1392Zm9.5-12.3Z" fill="#e9b701"/><path d="M7700.6,1345.3" fill="none"/><path d="M7617.3,1323.7" fill="none"/><path d="M7713.1,1355.3a2.716,2.716,0,0,1-1.7-.6l-5.5-4.9a2.479,2.479,0,1,1,3.3-3.7l3.6,3.2,6.6-7.7a2.43,2.43,0,0,1,3.5-.3,2.519,2.519,0,0,1,.3,3.5l-8.3,9.7a2.842,2.842,0,0,1-1.7.9C7713.2,1355.3,7713.2,1355.3,7713.1,1355.3Z" fill="#e9b701"/><path d="M7667.4,1322.5" fill="none"/><path d="M7677.9,1335.1" fill="none"/><path d="M7744.3,1320.4a2.566,2.566,0,0,1-1.8-.7,2.416,2.416,0,0,1,0-3.5l9.7-9.7a2.475,2.475,0,0,1,3.5,3.5l-9.7,9.7A2.61,2.61,0,0,1,7744.3,1320.4Z" fill="#e9b701"/><rect width="16.6" height="16.6" transform="translate(7702.784 1416.901) rotate(-45)" fill="#e9b701"/><circle cx="9.8" cy="9.8" r="9.8" transform="translate(7739.4 1372.5)" fill="#e9b701"/><path d="M7778.6,1357.4a2.609,2.609,0,0,1-2.1-1.1l-1.2-1.8c-1.3-2-.8-3.3-.3-4.1,1.3-1.8,3.6-1.2,5.8-.6.3.1.6.2,1,.3l-.3-.6c-.8-1.4-2.8-4.6-1-6.9,1.3-1.7,3.4-1.6,5.6-1.1a2.576,2.576,0,0,1,1-1.9,2.527,2.527,0,0,1,3.5.5l1.3,1.8c.5.6,2,2.5.7,4.4s-3.5,1.3-5.8.6a13.058,13.058,0,0,0-1.3-.3,2.169,2.169,0,0,1,.3.5c1.4,2.3,2.6,5,1.1,7.1-1.3,1.8-3.6,1.6-5.7,1.1a2.608,2.608,0,0,1-1.1,2.1A7.5,7.5,0,0,0,7778.6,1357.4Zm9.5-12.3Z" fill="#e9b701"/><path d="M7817,1320.7a2.716,2.716,0,0,1-1.7-.6l-5.5-4.8a2.479,2.479,0,1,1,3.3-3.7l3.6,3.2,6.6-7.7a2.484,2.484,0,1,1,3.8,3.2l-8.3,9.7a2.842,2.842,0,0,1-1.7.9C7817.1,1320.7,7817.1,1320.7,7817,1320.7Z" fill="#e9b701"/><rect width="16.6" height="16.6" transform="translate(7806.884 1382.114) rotate(-45)" fill="#e9b701"/><circle cx="9.8" cy="9.8" r="9.8" transform="translate(7843.5 1337.7)" fill="#e9b701"/><path d="M7884.9,1313.3" fill="#e9b701"/><path d="M7882.7,1322.6a2.609,2.609,0,0,1-2.1-1.1l-1.2-1.9c-1.3-2-.8-3.3-.3-4.1,1.3-1.8,3.6-1.2,5.8-.6.3.1.6.2,1,.3l-.3-.6c-.8-1.4-2.8-4.6-1-6.9,1.3-1.7,3.4-1.6,5.6-1.1a2.576,2.576,0,0,1,1-1.9,2.527,2.527,0,0,1,3.5.5l1.3,1.8c.5.6,2,2.5.7,4.4s-3.5,1.3-5.8.6a13.058,13.058,0,0,0-1.3-.3,2.169,2.169,0,0,1,.3.5c1.4,2.3,2.6,5,1.1,7.1-1.3,1.8-3.6,1.6-5.7,1.1a2.608,2.608,0,0,1-1.1,2.1C7883.6,1322.5,7883.2,1322.6,7882.7,1322.6Zm9.5-12.3Z" fill="#e9b701"/><rect width="16.6" height="16.6" transform="translate(7910.802 1347.503) rotate(-45)" fill="#e9b701"/><circle cx="9.8" cy="9.8" r="9.8" transform="translate(7947.4 1303)" fill="#e9b701"/></g></svg>