<svg xmlns="http://www.w3.org/2000/svg" width="179.628" height="179.497" viewBox="0 0 179.628 179.497">
  <g id="design" transform="translate(0 0)">
    <g id="Group_31" data-name="Group 31" transform="translate(37.733)">
      <path id="Path_24" data-name="Path 24" d="M132.775,49.571H41.431a6.414,6.414,0,0,1-6.409-6.4V14.006h104.16V43.167A6.412,6.412,0,0,1,132.775,49.571Zm-90.57-7.185H132V21.191H42.205Z" transform="translate(-35.022 -14.006)" fill="#ebb701"/>
      <g id="Group_30" data-name="Group 30" transform="translate(3.075 31.785)">
        <path id="Path_25" data-name="Path 25" d="M86.007,153.336l-3.53-7.65c-.135-.293-13.864-29.65-43.724-59.508l-2.019-2.019,1.511-2.423C57.28,51.209,57.3,32.957,57.3,32.775l7.185-.133c.016.792.174,19.339-18.653,50.472A249.275,249.275,0,0,1,85.6,136.068c5.114-9.842,16.954-29.418,39.946-52.86-18.538-27.909-19.8-50.2-19.842-51.16l7.178-.347c.011.225,1.365,22.65,20.248,49.887l1.71,2.466-2.123,2.121C99.6,119.3,89.184,145.234,89.082,145.493Z" transform="translate(-36.734 -31.701)" fill="#ebb701"/>
        <rect id="Rectangle_35" data-name="Rectangle 35" width="7.185" height="58.076" transform="translate(45.414 55.533)" fill="#ebb701"/>
        <path id="Path_26" data-name="Path 26" d="M71.619,80.272A17.156,17.156,0,1,1,88.78,63.115,17.176,17.176,0,0,1,71.619,80.272Zm0-27.129a9.971,9.971,0,1,0,9.975,9.971A9.982,9.982,0,0,0,71.619,53.142Z" transform="translate(-22.616 -20.347)" fill="#ebb701"/>
      </g>
    </g>
    <path id="Path_27" data-name="Path 27" d="M145.3,108.585H34.871a3.593,3.593,0,1,1,0-7.185H145.3a3.593,3.593,0,1,1,0,7.185Z" transform="translate(-0.27 55.586)" fill="#ebb701"/>
    <g id="Group_32" data-name="Group 32" transform="translate(0 142.118)">
      <path id="Path_28" data-name="Path 28" d="M52.209,130.3H14.016V93.377H52.211V130.3ZM21.2,123.115H45.026V100.562H21.2Z" transform="translate(-14.016 -92.921)" fill="#ebb701"/>
      <path id="Path_29" data-name="Path 29" d="M130.947,130.046H92.752V93.123h38.195Zm-31.01-7.185h23.824V100.308H99.937Z" transform="translate(48.682 -93.123)" fill="#ebb701"/>
    </g>
  </g>
</svg>
