<svg xmlns="http://www.w3.org/2000/svg" width="228.252" height="161.679" viewBox="0 0 228.252 161.679">
  <g id="video" transform="translate(17 12)">
    <g id="Group_41" data-name="Group 41" transform="translate(-17 -12)">
      <g id="Group_33" data-name="Group 33" transform="translate(9.511 47.553)">
        <path id="Path_30" data-name="Path 30" d="M149.413,130.126H16.266A14.283,14.283,0,0,1,2,115.86V30.266A14.283,14.283,0,0,1,16.266,16H149.413a14.283,14.283,0,0,1,14.266,14.266V115.86A14.283,14.283,0,0,1,149.413,130.126ZM16.266,25.511a4.76,4.76,0,0,0-4.755,4.755V115.86a4.76,4.76,0,0,0,4.755,4.755H149.413a4.76,4.76,0,0,0,4.755-4.755V30.266a4.76,4.76,0,0,0-4.755-4.755Z" transform="translate(-2 -16)" fill="#ebb701"/>
      </g>
      <g id="Group_34" data-name="Group 34" transform="translate(38.042 90.35)">
        <path id="Path_31" data-name="Path 31" d="M27.021,63.042A19.021,19.021,0,1,1,46.042,44.021,19.04,19.04,0,0,1,27.021,63.042Zm0-28.532a9.511,9.511,0,1,0,9.511,9.511A9.52,9.52,0,0,0,27.021,34.511Z" transform="translate(-8 -25)" fill="#ebb701"/>
      </g>
      <g id="Group_35" data-name="Group 35" transform="translate(104.616 90.35)">
        <path id="Path_32" data-name="Path 32" d="M41.021,63.042A19.021,19.021,0,1,1,60.042,44.021,19.04,19.04,0,0,1,41.021,63.042Zm0-28.532a9.511,9.511,0,1,0,9.511,9.511A9.52,9.52,0,0,0,41.021,34.511Z" transform="translate(-22 -25)" fill="#ebb701"/>
      </g>
      <g id="Group_36" data-name="Group 36" transform="translate(52.308 90.35)">
        <path id="Path_33" data-name="Path 33" d="M82.329,34.511H15.755a4.755,4.755,0,0,1,0-9.511H82.329a4.755,4.755,0,0,1,0,9.511Z" transform="translate(-11 -25)" fill="#ebb701"/>
      </g>
      <g id="Group_37" data-name="Group 37" transform="translate(0 19.021)">
        <path id="Path_34" data-name="Path 34" d="M109.371,48.042a4.754,4.754,0,0,1-4.755-4.755V24.266a4.76,4.76,0,0,0-4.755-4.755H4.755a4.755,4.755,0,0,1,0-9.511H99.86a14.283,14.283,0,0,1,14.266,14.266V43.287A4.754,4.754,0,0,1,109.371,48.042Z" transform="translate(0 -10)" fill="#ebb701"/>
      </g>
      <g id="Group_38" data-name="Group 38" transform="translate(142.658 9.511)">
        <path id="Path_35" data-name="Path 35" d="M34.755,55.553A4.754,4.754,0,0,1,30,50.8V22.266A14.283,14.283,0,0,1,44.266,8H63.287a4.755,4.755,0,1,1,0,9.511H44.266a4.76,4.76,0,0,0-4.755,4.755V50.8A4.754,4.754,0,0,1,34.755,55.553Z" transform="translate(-30 -8)" fill="#ebb701"/>
      </g>
      <g id="Group_39" data-name="Group 39" transform="translate(171.189)">
        <path id="Path_36" data-name="Path 36" d="M78.8,34.532H50.266A14.266,14.266,0,0,1,50.266,6H78.8a14.266,14.266,0,1,1,0,28.532ZM50.266,15.511a4.755,4.755,0,0,0,0,9.511H78.8a4.755,4.755,0,1,0,0-9.511Z" transform="translate(-36 -6)" fill="#ebb701"/>
      </g>
      <g id="Group_40" data-name="Group 40" transform="translate(161.676 69.127)">
        <path id="Path_37" data-name="Path 37" d="M90.7,101.02a9.866,9.866,0,0,1-3.795-.761L36.926,79.436a4.756,4.756,0,0,1,3.662-8.778L90.561,91.481l.5-.338V30.419L88.73,25.692l1.831,4.389L40.588,50.9a4.756,4.756,0,0,1-3.662-8.778L86.9,21.3a9.877,9.877,0,0,1,13.676,9.116V91.144A9.872,9.872,0,0,1,90.7,101.02Z" transform="translate(-33.999 -20.537)" fill="#ebb701"/>
      </g>
    </g>
  </g>
</svg>
