<svg xmlns="http://www.w3.org/2000/svg" width="190.482" height="157.029" viewBox="0 0 190.482 157.029">
  <g id="website" transform="translate(0 0)">
    <path id="Subtraction_1" data-name="Subtraction 1" d="M190.482,157.029v0H0V0H190.482V157.029ZM9.619,39.256V147.212H180.861V39.256Z" fill="#ebb701"/>
    <path id="web" d="M6.958,325.583,4.689,327.9a1.408,1.408,0,0,1-2.088,0l-21.147-21.574A1.478,1.478,0,0,1-19,305.259a1.478,1.478,0,0,1,.454-1.065L2.6,282.621a1.408,1.408,0,0,1,2.088,0l2.269,2.315a1.476,1.476,0,0,1,0,2.13l-17.835,18.194L6.958,323.453a1.476,1.476,0,0,1,0,2.13Zm26.82-49.4L16.851,335.953a1.5,1.5,0,0,1-.7.9,1.245,1.245,0,0,1-1.066.116l-2.814-.787a1.482,1.482,0,0,1-.885-.718,1.41,1.41,0,0,1-.113-1.134L28.2,274.565a1.5,1.5,0,0,1,.7-.9,1.245,1.245,0,0,1,1.066-.116l2.814.787a1.482,1.482,0,0,1,.885.718A1.41,1.41,0,0,1,33.778,276.186Zm29.815,30.138L42.445,327.9a1.408,1.408,0,0,1-2.088,0l-2.269-2.315a1.476,1.476,0,0,1,0-2.13l17.835-18.194L38.089,287.065a1.476,1.476,0,0,1,0-2.13l2.269-2.315a1.408,1.408,0,0,1,2.088,0l21.147,21.574a1.476,1.476,0,0,1,0,2.13Z" transform="translate(74.031 -210.462)" fill="#ebb701"/>
  </g>
</svg>
